# xmcd
# 
# Track frame offsets:
#     150
#     25865
#     43915
#     83567
#     111290
#     185775
#     215997
#     260727
#     293595
#     311955
# 
# Disc length: 4259
# 
# Revision: 1
# Processed by: cddbd v1.5.2PL0 Copyright (c) Steve Scherf et al.
# Submitted via: BonkEnc v1.0.8
# 
DISCID=9c10a10a
DTITLE=The Allman Brothers Band - Live In Concert USA 1973
DYEAR=0
DGENRE=Southern
TTITLE0=Wasted Words
TTITLE1=Done Somebody Wrong
TTITLE2=One Way Out
TTITLE3=Stormy Monday
TTITLE4=In Memory Of Elizabeth Reed
TTITLE5=Southbound
TTITLE6=Jessica
TTITLE7=Ramblin' Man
TTITLE8=Whipping post
TTITLE9=Cadillac
EXTD=
EXTT0=
EXTT1=
EXTT2=
EXTT3=
EXTT4=
EXTT5=
EXTT6=
EXTT7=
EXTT8=
EXTT9=
PLAYORDER=
